<?xml version="1.0" encoding="utf-8"?>
<!-- Generator: Adobe Illustrator 25.0.0, SVG Export Plug-In . SVG Version: 6.00 Build 0)  -->
<svg version="1.1" id="Layer_1" xmlns="http://www.w3.org/2000/svg" xmlns:xlink="http://www.w3.org/1999/xlink" x="0px" y="0px"
	 viewBox="0 0 18.1 16.1" style="enable-background:new 0 0 18.1 16.1;" xml:space="preserve">
<style type="text/css">
	.st0{fill:#FFFFFF;}
</style>
<path class="st0" d="M18.1,3.2H1.7L4,0.9c0.2-0.2,0.2-0.5,0-0.7C3.8,0,3.5,0,3.3,0.1L0.1,3.3C0,3.5,0,3.8,0.1,4l3.2,3.2
	c0.2,0.2,0.5,0.2,0.7,0C4.2,7,4.2,6.7,4,6.5L1.7,4.2h16.4V3.2z"/>
<path class="st0" d="M18.1,12H1.7L4,9.6c0.2-0.2,0.2-0.5,0-0.7c-0.2-0.2-0.5-0.2-0.7,0l-3.2,3.2c-0.2,0.2-0.2,0.5,0,0.7L3.3,16
	c0.2,0.2,0.5,0.2,0.7,0c0.2-0.2,0.2-0.5,0-0.7L1.7,13h16.4V12z"/>
</svg>
