<?xml version="1.0" encoding="utf-8"?>
<!-- Generator: Adobe Illustrator 25.0.0, SVG Export Plug-In . SVG Version: 6.00 Build 0)  -->
<svg version="1.1" id="Layer_1" xmlns="http://www.w3.org/2000/svg" xmlns:xlink="http://www.w3.org/1999/xlink" x="0px" y="0px"
	 viewBox="0 0 15.5 15.5" style="enable-background:new 0 0 15.5 15.5;" xml:space="preserve">
<style type="text/css">
	.st0{fill:#FFFFFF;}
</style>
<path class="st0" d="M8.4,7.7l6.9-6.9c0.2-0.2,0.2-0.5,0-0.7s-0.5-0.2-0.7,0L7.7,7L0.9,0.1C0.7,0,0.3,0,0.1,0.1S0,0.7,0.1,0.9L7,7.7
	l-6.9,6.9c-0.2,0.2-0.2,0.5,0,0.7s0.5,0.2,0.7,0l6.9-6.9l6.9,6.9c0.2,0.2,0.5,0.2,0.7,0s0.2-0.5,0-0.7L8.4,7.7z"/>
</svg>
